<svg xmlns="http://www.w3.org/2000/svg" viewBox="0 0 1200 520" width="1200" height="520">
<defs>
  <linearGradient id="bg" x1="0" y1="0" x2="1" y2="1"><stop stop-color="#071A2B"/><stop offset=".5" stop-color="#0B4963"/><stop offset="1" stop-color="#087F5B"/></linearGradient>
  <linearGradient id="card" x1="0" y1="0" x2="1" y2="1"><stop stop-color="#102B40"/><stop offset="1" stop-color="#0B594A"/></linearGradient>
  <linearGradient id="accent" x1="0" y1="0" x2="1" y2="0"><stop stop-color="#38BDF8"/><stop offset="1" stop-color="#34D399"/></linearGradient>
  <filter id="shadow"><feDropShadow dx="0" dy="12" stdDeviation="14" flood-opacity=".25"/></filter>
  <filter id="glow"><feGaussianBlur stdDeviation="5" result="b"/><feMerge><feMergeNode in="b"/><feMergeNode in="SourceGraphic"/></feMerge></filter>
</defs>
<rect width="1200" height="520" rx="30" fill="url(#bg)"/>
<circle cx="1080" cy="70" r="180" fill="#38BDF8" opacity=".08"/>
<circle cx="90" cy="470" r="200" fill="#34D399" opacity=".08"/>
<text x="60" y="62" fill="#fff" font-family="Arial" font-size="27" font-weight="700">CODE GREEN 2026</text>
<text x="60" y="91" fill="#C7F9E8" font-family="Arial" font-size="15">MIMAROPA IT Congress • QR Check-In &amp; Validation Flow</text>

<g filter="url(#shadow)">
<rect x="50" y="135" width="210" height="265" rx="24" fill="url(#card)" stroke="#A7F3D0" stroke-opacity=".22"/>
<rect x="75" y="160" width="160" height="86" rx="16" fill="#061522" stroke="#38BDF8" stroke-opacity=".45"/>
<path d="M92 177h22v22H92zM126 177h22v22h-22zM92 211h22v22H92zM126 211h11v11h-11zM151 177h25v12h-25zM160 199h16v34h-16z" fill="#D1FAE5"/>
<text x="75" y="280" fill="#fff" font-family="Arial" font-size="18" font-weight="700">ATTENDEE</text>
<text x="75" y="307" fill="#B8D8DF" font-family="Arial" font-size="14">QR code / ID</text>
<text x="75" y="338" fill="#4FD1C5" font-family="Arial" font-size="13">Registration</text>
<text x="75" y="362" fill="#B8D8DF" font-family="Arial" font-size="12">Form → ID → QR → Email</text>
</g>

<path d="M275 268h78" stroke="url(#accent)" stroke-width="5" stroke-linecap="round"/>
<path d="M345 255l18 13-18 13" fill="none" stroke="#A7F3D0" stroke-width="5" stroke-linecap="round" stroke-linejoin="round"/>

<g filter="url(#shadow)">
<rect x="370" y="135" width="210" height="265" rx="24" fill="url(#card)" stroke="#A7F3D0" stroke-opacity=".22"/>
<circle cx="475" cy="190" r="39" fill="#38BDF8" opacity=".14" stroke="#38BDF8" stroke-opacity=".55"/>
<rect x="438" y="153" width="74" height="74" rx="12" fill="none" stroke="#D1FAE5" stroke-width="5"/>
<path d="M453 168h16v16h-16zM481 168h16v16h-16zM453 196h16v16h-16zM481 196h8v8h-8z" fill="#D1FAE5"/>
<text x="395" y="280" fill="#fff" font-family="Arial" font-size="18" font-weight="700">CHECK-IN</text>
<text x="395" y="307" fill="#B8D8DF" font-family="Arial" font-size="14">Responsive scanner</text>
<rect x="395" y="330" width="160" height="9" rx="5" fill="#1B4251"/>
<rect x="395" y="330" width="102" height="9" rx="5" fill="url(#accent)"/>
<text x="395" y="366" fill="#B8D8DF" font-family="Arial" font-size="12">Mobile • Tablet • Laptop</text>
</g>

<path d="M595 268h78" stroke="url(#accent)" stroke-width="5" stroke-linecap="round"/>
<path d="M665 255l18 13-18 13" fill="none" stroke="#A7F3D0" stroke-width="5" stroke-linecap="round" stroke-linejoin="round"/>

<g filter="url(#shadow)">
<rect x="690" y="135" width="210" height="265" rx="24" fill="url(#card)" stroke="#A7F3D0" stroke-opacity=".22"/>
<circle cx="795" cy="190" r="39" fill="#34D399" opacity=".14" stroke="#34D399" stroke-opacity=".55"/>
<path d="M772 190l15 15 31-35" fill="none" stroke="#D1FAE5" stroke-width="7" stroke-linecap="round" stroke-linejoin="round"/>
<text x="715" y="280" fill="#fff" font-family="Arial" font-size="18" font-weight="700">VALIDATE</text>
<text x="715" y="307" fill="#B8D8DF" font-family="Arial" font-size="14">Apps Script rules</text>
<text x="715" y="340" fill="#B8D8DF" font-family="Arial" font-size="12">Attendance</text>
<text x="715" y="362" fill="#B8D8DF" font-family="Arial" font-size="12">AM Snack → PM Snack</text>
</g>

<path d="M915 268h78" stroke="url(#accent)" stroke-width="5" stroke-linecap="round"/>
<path d="M985 255l18 13-18 13" fill="none" stroke="#A7F3D0" stroke-width="5" stroke-linecap="round" stroke-linejoin="round"/>

<g filter="url(#shadow)">
<rect x="1010" y="135" width="140" height="265" rx="24" fill="url(#card)" stroke="#A7F3D0" stroke-opacity=".22"/>
<circle cx="1080" cy="190" r="39" fill="#A7F3D0" opacity=".13" stroke="#A7F3D0" stroke-opacity=".55"/>
<path d="M1060 190l13 13 27-31" fill="none" stroke="#D1FAE5" stroke-width="6" stroke-linecap="round"/>
<text x="1032" y="280" fill="#fff" font-family="Arial" font-size="17" font-weight="700">RESULT</text>
<text x="1032" y="307" fill="#B8D8DF" font-family="Arial" font-size="12">Success</text>
<text x="1032" y="329" fill="#B8D8DF" font-family="Arial" font-size="12">Duplicate</text>
<text x="1032" y="351" fill="#B8D8DF" font-family="Arial" font-size="12">Denied</text>
<text x="1032" y="373" fill="#B8D8DF" font-family="Arial" font-size="12">Not Found</text>
</g>

<rect x="50" y="438" width="1100" height="2" fill="url(#accent)" opacity=".7"/>
<text x="60" y="475" fill="#C7F9E8" font-family="Arial" font-size="14">Google Form</text>
<text x="210" y="475" fill="#C7F9E8" font-family="Arial" font-size="14">→</text>
<text x="245" y="475" fill="#C7F9E8" font-family="Arial" font-size="14">QR Check-In</text>
<text x="390" y="475" fill="#C7F9E8" font-family="Arial" font-size="14">→</text>
<text x="425" y="475" fill="#C7F9E8" font-family="Arial" font-size="14">Apps Script</text>
<text x="550" y="475" fill="#C7F9E8" font-family="Arial" font-size="14">→</text>
<text x="585" y="475" fill="#C7F9E8" font-family="Arial" font-size="14">Google Sheets</text>
<text x="725" y="475" fill="#C7F9E8" font-family="Arial" font-size="14">→</text>
<text x="760" y="475" fill="#C7F9E8" font-family="Arial" font-size="14">Responsive Result</text>
</svg>